<mxfile host="app.diagrams.net" modified="2022-11-23T11:39:10.467Z" agent="5.0 (Windows NT 10.0; Win64; x64) AppleWebKit/537.36 (KHTML, like Gecko) Chrome/107.0.0.0 Safari/537.36" etag="UMZaocEj_ezlnL1eN4ZH" version="20.6.0" type="github">
  <diagram id="R2lEEEUBdFMjLlhIrx00" name="Page-1">
    <mxGraphModel dx="637" dy="1033" grid="1" gridSize="10" guides="1" tooltips="1" connect="1" arrows="1" fold="1" page="1" pageScale="1" pageWidth="850" pageHeight="1100" math="0" shadow="0" extFonts="Permanent Marker^https://fonts.googleapis.com/css?family=Permanent+Marker">
      <root>
        <mxCell id="0" />
        <mxCell id="1" parent="0" />
        <mxCell id="sQqHysFPrw9rnipJ-EMm-1" value="&lt;font style=&quot;font-size: 16px;&quot;&gt;系&lt;/font&gt;" style="rounded=0;whiteSpace=wrap;html=1;" parent="1" vertex="1">
          <mxGeometry x="260" y="230" width="120" height="60" as="geometry" />
        </mxCell>
        <mxCell id="sQqHysFPrw9rnipJ-EMm-2" value="属于" style="rhombus;whiteSpace=wrap;html=1;fontSize=16;" parent="1" vertex="1">
          <mxGeometry x="180" y="320" width="80" height="80" as="geometry" />
        </mxCell>
        <mxCell id="sQqHysFPrw9rnipJ-EMm-3" value="属于" style="rhombus;whiteSpace=wrap;html=1;fontSize=16;" parent="1" vertex="1">
          <mxGeometry x="380" y="320" width="80" height="80" as="geometry" />
        </mxCell>
        <mxCell id="sQqHysFPrw9rnipJ-EMm-7" value="" style="endArrow=none;html=1;rounded=0;fontSize=16;entryX=0;entryY=0.5;entryDx=0;entryDy=0;exitX=0.5;exitY=0;exitDx=0;exitDy=0;" parent="1" source="sQqHysFPrw9rnipJ-EMm-2" target="sQqHysFPrw9rnipJ-EMm-1" edge="1">
          <mxGeometry width="50" height="50" relative="1" as="geometry">
            <mxPoint x="210" y="360" as="sourcePoint" />
            <mxPoint x="260" y="310" as="targetPoint" />
          </mxGeometry>
        </mxCell>
        <mxCell id="sQqHysFPrw9rnipJ-EMm-8" value="1" style="edgeLabel;html=1;align=center;verticalAlign=middle;resizable=0;points=[];fontSize=16;" parent="sQqHysFPrw9rnipJ-EMm-7" vertex="1" connectable="0">
          <mxGeometry x="-0.2405" y="1" relative="1" as="geometry">
            <mxPoint as="offset" />
          </mxGeometry>
        </mxCell>
        <mxCell id="sQqHysFPrw9rnipJ-EMm-9" value="" style="endArrow=none;html=1;rounded=0;fontSize=16;entryX=1;entryY=0.5;entryDx=0;entryDy=0;exitX=0.5;exitY=0;exitDx=0;exitDy=0;" parent="1" source="sQqHysFPrw9rnipJ-EMm-3" target="sQqHysFPrw9rnipJ-EMm-1" edge="1">
          <mxGeometry width="50" height="50" relative="1" as="geometry">
            <mxPoint x="310" y="400" as="sourcePoint" />
            <mxPoint x="360" y="350" as="targetPoint" />
          </mxGeometry>
        </mxCell>
        <mxCell id="sQqHysFPrw9rnipJ-EMm-10" value="1" style="edgeLabel;html=1;align=center;verticalAlign=middle;resizable=0;points=[];fontSize=16;" parent="sQqHysFPrw9rnipJ-EMm-9" vertex="1" connectable="0">
          <mxGeometry x="-0.1905" y="1" relative="1" as="geometry">
            <mxPoint as="offset" />
          </mxGeometry>
        </mxCell>
        <mxCell id="sQqHysFPrw9rnipJ-EMm-11" value="班级" style="rounded=0;whiteSpace=wrap;html=1;fontSize=16;" parent="1" vertex="1">
          <mxGeometry x="60" y="470" width="120" height="60" as="geometry" />
        </mxCell>
        <mxCell id="sQqHysFPrw9rnipJ-EMm-15" value="" style="endArrow=none;html=1;rounded=0;fontSize=16;entryX=0.5;entryY=1;entryDx=0;entryDy=0;exitX=0.5;exitY=0;exitDx=0;exitDy=0;" parent="1" source="sQqHysFPrw9rnipJ-EMm-11" target="sQqHysFPrw9rnipJ-EMm-2" edge="1">
          <mxGeometry width="50" height="50" relative="1" as="geometry">
            <mxPoint x="290" y="480" as="sourcePoint" />
            <mxPoint x="340" y="430" as="targetPoint" />
          </mxGeometry>
        </mxCell>
        <mxCell id="sQqHysFPrw9rnipJ-EMm-16" value="n" style="edgeLabel;html=1;align=center;verticalAlign=middle;resizable=0;points=[];fontSize=16;" parent="sQqHysFPrw9rnipJ-EMm-15" vertex="1" connectable="0">
          <mxGeometry x="-0.2157" relative="1" as="geometry">
            <mxPoint y="-12" as="offset" />
          </mxGeometry>
        </mxCell>
        <mxCell id="sQqHysFPrw9rnipJ-EMm-17" value="教研室" style="rounded=0;whiteSpace=wrap;html=1;fontSize=16;" parent="1" vertex="1">
          <mxGeometry x="460" y="470" width="120" height="60" as="geometry" />
        </mxCell>
        <mxCell id="sQqHysFPrw9rnipJ-EMm-18" value="" style="endArrow=none;html=1;rounded=0;fontSize=16;entryX=0.5;entryY=1;entryDx=0;entryDy=0;exitX=0.5;exitY=0;exitDx=0;exitDy=0;" parent="1" source="sQqHysFPrw9rnipJ-EMm-17" target="sQqHysFPrw9rnipJ-EMm-3" edge="1">
          <mxGeometry width="50" height="50" relative="1" as="geometry">
            <mxPoint x="230" y="480" as="sourcePoint" />
            <mxPoint x="230" y="410" as="targetPoint" />
          </mxGeometry>
        </mxCell>
        <mxCell id="sQqHysFPrw9rnipJ-EMm-19" value="n" style="edgeLabel;html=1;align=center;verticalAlign=middle;resizable=0;points=[];fontSize=16;" parent="sQqHysFPrw9rnipJ-EMm-18" vertex="1" connectable="0">
          <mxGeometry x="-0.2157" relative="1" as="geometry">
            <mxPoint y="-12" as="offset" />
          </mxGeometry>
        </mxCell>
        <mxCell id="sQqHysFPrw9rnipJ-EMm-82" value="1" style="edgeStyle=orthogonalEdgeStyle;rounded=0;orthogonalLoop=1;jettySize=auto;html=1;exitX=0.5;exitY=1;exitDx=0;exitDy=0;entryX=0.5;entryY=0;entryDx=0;entryDy=0;fontSize=16;endArrow=none;endFill=0;" parent="1" source="sQqHysFPrw9rnipJ-EMm-20" target="sQqHysFPrw9rnipJ-EMm-81" edge="1">
          <mxGeometry relative="1" as="geometry" />
        </mxCell>
        <mxCell id="sQqHysFPrw9rnipJ-EMm-20" value="教授" style="rounded=0;whiteSpace=wrap;html=1;fontSize=16;" parent="1" vertex="1">
          <mxGeometry x="560" y="680" width="120" height="60" as="geometry" />
        </mxCell>
        <mxCell id="sQqHysFPrw9rnipJ-EMm-78" value="1" style="edgeStyle=orthogonalEdgeStyle;rounded=0;orthogonalLoop=1;jettySize=auto;html=1;exitX=0.5;exitY=1;exitDx=0;exitDy=0;entryX=0.5;entryY=0;entryDx=0;entryDy=0;fontSize=16;endArrow=none;endFill=0;" parent="1" source="sQqHysFPrw9rnipJ-EMm-21" target="sQqHysFPrw9rnipJ-EMm-68" edge="1">
          <mxGeometry relative="1" as="geometry" />
        </mxCell>
        <mxCell id="sQqHysFPrw9rnipJ-EMm-21" value="副教授" style="rounded=0;whiteSpace=wrap;html=1;fontSize=16;" parent="1" vertex="1">
          <mxGeometry x="360" y="680" width="120" height="60" as="geometry" />
        </mxCell>
        <mxCell id="sQqHysFPrw9rnipJ-EMm-28" value="属于" style="rhombus;whiteSpace=wrap;html=1;fontSize=16;" parent="1" vertex="1">
          <mxGeometry x="580" y="560" width="80" height="80" as="geometry" />
        </mxCell>
        <mxCell id="sQqHysFPrw9rnipJ-EMm-33" value="" style="endArrow=none;html=1;rounded=0;fontSize=16;entryX=1;entryY=0.5;entryDx=0;entryDy=0;exitX=0.5;exitY=0;exitDx=0;exitDy=0;" parent="1" source="sQqHysFPrw9rnipJ-EMm-28" target="sQqHysFPrw9rnipJ-EMm-17" edge="1">
          <mxGeometry width="50" height="50" relative="1" as="geometry">
            <mxPoint x="670" y="820" as="sourcePoint" />
            <mxPoint x="630" y="650" as="targetPoint" />
          </mxGeometry>
        </mxCell>
        <mxCell id="sQqHysFPrw9rnipJ-EMm-34" value="1" style="edgeLabel;html=1;align=center;verticalAlign=middle;resizable=0;points=[];fontSize=16;" parent="sQqHysFPrw9rnipJ-EMm-33" vertex="1" connectable="0">
          <mxGeometry x="-0.1905" y="1" relative="1" as="geometry">
            <mxPoint as="offset" />
          </mxGeometry>
        </mxCell>
        <mxCell id="sQqHysFPrw9rnipJ-EMm-35" value="" style="endArrow=none;html=1;rounded=0;fontSize=16;entryX=0.5;entryY=1;entryDx=0;entryDy=0;exitX=0.5;exitY=0;exitDx=0;exitDy=0;" parent="1" source="sQqHysFPrw9rnipJ-EMm-20" target="sQqHysFPrw9rnipJ-EMm-28" edge="1">
          <mxGeometry width="50" height="50" relative="1" as="geometry">
            <mxPoint x="530" y="480" as="sourcePoint" />
            <mxPoint x="530" y="410" as="targetPoint" />
          </mxGeometry>
        </mxCell>
        <mxCell id="sQqHysFPrw9rnipJ-EMm-36" value="n" style="edgeLabel;html=1;align=center;verticalAlign=middle;resizable=0;points=[];fontSize=16;" parent="sQqHysFPrw9rnipJ-EMm-35" vertex="1" connectable="0">
          <mxGeometry x="-0.2157" relative="1" as="geometry">
            <mxPoint y="-5" as="offset" />
          </mxGeometry>
        </mxCell>
        <mxCell id="sQqHysFPrw9rnipJ-EMm-37" value="属于" style="rhombus;whiteSpace=wrap;html=1;fontSize=16;" parent="1" vertex="1">
          <mxGeometry x="380" y="560" width="80" height="80" as="geometry" />
        </mxCell>
        <mxCell id="sQqHysFPrw9rnipJ-EMm-39" value="" style="endArrow=none;html=1;rounded=0;fontSize=16;entryX=0;entryY=0.5;entryDx=0;entryDy=0;exitX=0.5;exitY=0;exitDx=0;exitDy=0;" parent="1" source="sQqHysFPrw9rnipJ-EMm-37" target="sQqHysFPrw9rnipJ-EMm-17" edge="1">
          <mxGeometry width="50" height="50" relative="1" as="geometry">
            <mxPoint x="530" y="330" as="sourcePoint" />
            <mxPoint x="490" y="270" as="targetPoint" />
          </mxGeometry>
        </mxCell>
        <mxCell id="sQqHysFPrw9rnipJ-EMm-40" value="1" style="edgeLabel;html=1;align=center;verticalAlign=middle;resizable=0;points=[];fontSize=16;" parent="sQqHysFPrw9rnipJ-EMm-39" vertex="1" connectable="0">
          <mxGeometry x="-0.1905" y="1" relative="1" as="geometry">
            <mxPoint as="offset" />
          </mxGeometry>
        </mxCell>
        <mxCell id="sQqHysFPrw9rnipJ-EMm-41" value="" style="endArrow=none;html=1;rounded=0;fontSize=16;" parent="1" source="sQqHysFPrw9rnipJ-EMm-21" target="sQqHysFPrw9rnipJ-EMm-37" edge="1">
          <mxGeometry width="50" height="50" relative="1" as="geometry">
            <mxPoint x="419.47" y="710" as="sourcePoint" />
            <mxPoint x="419.47" y="640" as="targetPoint" />
          </mxGeometry>
        </mxCell>
        <mxCell id="sQqHysFPrw9rnipJ-EMm-42" value="n" style="edgeLabel;html=1;align=center;verticalAlign=middle;resizable=0;points=[];fontSize=16;" parent="sQqHysFPrw9rnipJ-EMm-41" vertex="1" connectable="0">
          <mxGeometry x="-0.2157" relative="1" as="geometry">
            <mxPoint y="-5" as="offset" />
          </mxGeometry>
        </mxCell>
        <mxCell id="sQqHysFPrw9rnipJ-EMm-51" style="edgeStyle=orthogonalEdgeStyle;rounded=0;orthogonalLoop=1;jettySize=auto;html=1;exitX=0.5;exitY=1;exitDx=0;exitDy=0;entryX=0.5;entryY=0;entryDx=0;entryDy=0;fontSize=16;endArrow=none;endFill=0;" parent="1" source="sQqHysFPrw9rnipJ-EMm-43" target="sQqHysFPrw9rnipJ-EMm-50" edge="1">
          <mxGeometry relative="1" as="geometry" />
        </mxCell>
        <mxCell id="sQqHysFPrw9rnipJ-EMm-52" value="n" style="edgeLabel;html=1;align=center;verticalAlign=middle;resizable=0;points=[];fontSize=16;" parent="sQqHysFPrw9rnipJ-EMm-51" vertex="1" connectable="0">
          <mxGeometry x="0.2758" y="-1" relative="1" as="geometry">
            <mxPoint x="1" y="-5" as="offset" />
          </mxGeometry>
        </mxCell>
        <mxCell id="sQqHysFPrw9rnipJ-EMm-43" value="属于" style="rhombus;whiteSpace=wrap;html=1;fontSize=16;" parent="1" vertex="1">
          <mxGeometry x="80" y="560" width="80" height="80" as="geometry" />
        </mxCell>
        <mxCell id="sQqHysFPrw9rnipJ-EMm-44" value="" style="endArrow=none;html=1;rounded=0;fontSize=16;entryX=0.5;entryY=1;entryDx=0;entryDy=0;exitX=0.5;exitY=0;exitDx=0;exitDy=0;" parent="1" source="sQqHysFPrw9rnipJ-EMm-43" target="sQqHysFPrw9rnipJ-EMm-11" edge="1">
          <mxGeometry width="50" height="50" relative="1" as="geometry">
            <mxPoint x="230" y="330" as="sourcePoint" />
            <mxPoint x="270" y="270" as="targetPoint" />
          </mxGeometry>
        </mxCell>
        <mxCell id="sQqHysFPrw9rnipJ-EMm-45" value="1" style="edgeLabel;html=1;align=center;verticalAlign=middle;resizable=0;points=[];fontSize=16;" parent="sQqHysFPrw9rnipJ-EMm-44" vertex="1" connectable="0">
          <mxGeometry x="-0.2405" y="1" relative="1" as="geometry">
            <mxPoint as="offset" />
          </mxGeometry>
        </mxCell>
        <mxCell id="sQqHysFPrw9rnipJ-EMm-50" value="学生" style="rounded=0;whiteSpace=wrap;html=1;fontSize=16;" parent="1" vertex="1">
          <mxGeometry x="60" y="680" width="120" height="60" as="geometry" />
        </mxCell>
        <mxCell id="sQqHysFPrw9rnipJ-EMm-53" value="课程" style="rounded=0;whiteSpace=wrap;html=1;fontSize=16;" parent="1" vertex="1">
          <mxGeometry x="60" y="900" width="120" height="60" as="geometry" />
        </mxCell>
        <mxCell id="sQqHysFPrw9rnipJ-EMm-58" value="选修" style="rhombus;whiteSpace=wrap;html=1;fontSize=16;" parent="1" vertex="1">
          <mxGeometry x="80" y="780" width="80" height="80" as="geometry" />
        </mxCell>
        <mxCell id="sQqHysFPrw9rnipJ-EMm-61" style="edgeStyle=orthogonalEdgeStyle;rounded=0;orthogonalLoop=1;jettySize=auto;html=1;exitX=0.5;exitY=1;exitDx=0;exitDy=0;entryX=0.5;entryY=0;entryDx=0;entryDy=0;fontSize=16;endArrow=none;endFill=0;" parent="1" edge="1">
          <mxGeometry relative="1" as="geometry">
            <mxPoint x="119.82" y="740" as="sourcePoint" />
            <mxPoint x="119.82" y="780" as="targetPoint" />
          </mxGeometry>
        </mxCell>
        <mxCell id="sQqHysFPrw9rnipJ-EMm-62" value="n" style="edgeLabel;html=1;align=center;verticalAlign=middle;resizable=0;points=[];fontSize=16;" parent="sQqHysFPrw9rnipJ-EMm-61" vertex="1" connectable="0">
          <mxGeometry x="0.2758" y="-1" relative="1" as="geometry">
            <mxPoint x="1" y="-5" as="offset" />
          </mxGeometry>
        </mxCell>
        <mxCell id="sQqHysFPrw9rnipJ-EMm-65" style="edgeStyle=orthogonalEdgeStyle;rounded=0;orthogonalLoop=1;jettySize=auto;html=1;exitX=0.5;exitY=1;exitDx=0;exitDy=0;entryX=0.5;entryY=0;entryDx=0;entryDy=0;fontSize=16;endArrow=none;endFill=0;" parent="1" edge="1">
          <mxGeometry relative="1" as="geometry">
            <mxPoint x="119.82" y="860" as="sourcePoint" />
            <mxPoint x="119.82" y="900" as="targetPoint" />
          </mxGeometry>
        </mxCell>
        <mxCell id="sQqHysFPrw9rnipJ-EMm-66" value="m" style="edgeLabel;html=1;align=center;verticalAlign=middle;resizable=0;points=[];fontSize=16;" parent="sQqHysFPrw9rnipJ-EMm-65" vertex="1" connectable="0">
          <mxGeometry x="0.2758" y="-1" relative="1" as="geometry">
            <mxPoint x="1" y="-5" as="offset" />
          </mxGeometry>
        </mxCell>
        <mxCell id="sQqHysFPrw9rnipJ-EMm-67" value="研究生" style="rounded=0;whiteSpace=wrap;html=1;fontSize=16;" parent="1" vertex="1">
          <mxGeometry x="460" y="900" width="120" height="60" as="geometry" />
        </mxCell>
        <mxCell id="sQqHysFPrw9rnipJ-EMm-68" value="指导" style="rhombus;whiteSpace=wrap;html=1;fontSize=16;" parent="1" vertex="1">
          <mxGeometry x="380" y="780" width="80" height="80" as="geometry" />
        </mxCell>
        <mxCell id="sQqHysFPrw9rnipJ-EMm-69" value="属于" style="rhombus;whiteSpace=wrap;html=1;fontSize=16;" parent="1" vertex="1">
          <mxGeometry x="240" y="780" width="80" height="80" as="geometry" />
        </mxCell>
        <mxCell id="sQqHysFPrw9rnipJ-EMm-72" value="1" style="endArrow=none;html=1;rounded=0;fontSize=16;entryX=1;entryY=0.5;entryDx=0;entryDy=0;exitX=0.5;exitY=0;exitDx=0;exitDy=0;" parent="1" source="sQqHysFPrw9rnipJ-EMm-69" target="sQqHysFPrw9rnipJ-EMm-50" edge="1">
          <mxGeometry width="50" height="50" relative="1" as="geometry">
            <mxPoint x="270" y="770" as="sourcePoint" />
            <mxPoint x="280" y="720" as="targetPoint" />
          </mxGeometry>
        </mxCell>
        <mxCell id="sQqHysFPrw9rnipJ-EMm-75" value="1" style="endArrow=none;html=1;rounded=0;fontSize=16;entryX=0.5;entryY=1;entryDx=0;entryDy=0;exitX=0;exitY=0.5;exitDx=0;exitDy=0;" parent="1" source="sQqHysFPrw9rnipJ-EMm-67" target="sQqHysFPrw9rnipJ-EMm-69" edge="1">
          <mxGeometry width="50" height="50" relative="1" as="geometry">
            <mxPoint x="290" y="790" as="sourcePoint" />
            <mxPoint x="190" y="720" as="targetPoint" />
          </mxGeometry>
        </mxCell>
        <mxCell id="sQqHysFPrw9rnipJ-EMm-80" value="n" style="endArrow=none;html=1;rounded=0;fontSize=16;entryX=0.5;entryY=1;entryDx=0;entryDy=0;exitX=0.5;exitY=0;exitDx=0;exitDy=0;" parent="1" source="sQqHysFPrw9rnipJ-EMm-67" target="sQqHysFPrw9rnipJ-EMm-68" edge="1">
          <mxGeometry width="50" height="50" relative="1" as="geometry">
            <mxPoint x="520" y="890" as="sourcePoint" />
            <mxPoint x="570" y="840" as="targetPoint" />
          </mxGeometry>
        </mxCell>
        <mxCell id="sQqHysFPrw9rnipJ-EMm-83" value="n" style="rounded=0;orthogonalLoop=1;jettySize=auto;html=1;exitX=0.5;exitY=1;exitDx=0;exitDy=0;entryX=0.5;entryY=0;entryDx=0;entryDy=0;fontSize=16;endArrow=none;endFill=0;" parent="1" source="sQqHysFPrw9rnipJ-EMm-81" target="sQqHysFPrw9rnipJ-EMm-67" edge="1">
          <mxGeometry relative="1" as="geometry" />
        </mxCell>
        <mxCell id="sQqHysFPrw9rnipJ-EMm-81" value="指导" style="rhombus;whiteSpace=wrap;html=1;fontSize=16;" parent="1" vertex="1">
          <mxGeometry x="580" y="780" width="80" height="80" as="geometry" />
        </mxCell>
      </root>
    </mxGraphModel>
  </diagram>
</mxfile>
